<svg xmlns="http://www.w3.org/2000/svg" xmlns:xlink="http://www.w3.org/1999/xlink" version="1.1" enable-background="new 0 0 841.9 595.3" xml:space="preserve" width="491" height="437" style=""><rect id="backgroundrect" width="100%" height="100%" x="0" y="0" fill="none" stroke="none"/>

<g class="currentLayer" style=""><title>Layer 1</title><g id="svg_1" class="">
	<path fill="#61DAFB" d="M490.5999114990234,218.49998474121094 c0,-32.5 -40.7,-63.3 -103.1,-82.4 c14.4,-63.6 8,-114.2 -20.2,-130.4 c-6.5,-3.8 -14.1,-5.6 -22.4,-5.6 v22.3 c4.6,0 8.3,0.9 11.4,2.6 c13.6,7.8 19.5,37.5 14.9,75.7 c-1.1,9.4 -2.9,19.3 -5.1,29.4 c-19.6,-4.8 -41,-8.5 -63.5,-10.9 c-13.5,-18.5 -27.5,-35.3 -41.6,-50 c32.6,-30.3 63.2,-46.9 84,-46.9 l0,-22.3 c0,0 0,0 0,0 c-27.5,0 -63.5,19.6 -99.9,53.6 c-36.4,-33.8 -72.4,-53.2 -99.9,-53.2 v22.3 c20.7,0 51.4,16.5 84,46.6 c-14,14.7 -28,31.4 -41.3,49.9 c-22.6,2.4 -44,6.1 -63.6,11 c-2.3,-10 -4,-19.7 -5.2,-29 c-4.7,-38.2 1.1,-67.9 14.6,-75.8 c3,-1.8 6.9,-2.6 11.5,-2.6 l0,-22.3 c0,0 0,0 0,0 c-8.4,0 -16,1.8 -22.6,5.6 c-28.1,16.2 -34.4,66.7 -19.9,130.1 c-62.2,19.2 -102.7,49.9 -102.7,82.3 c0,32.5 40.7,63.3 103.1,82.4 c-14.4,63.6 -8,114.2 20.2,130.4 c6.5,3.8 14.1,5.6 22.5,5.6 c27.5,0 63.5,-19.6 99.9,-53.6 c36.4,33.8 72.4,53.2 99.9,53.2 c8.4,0 16,-1.8 22.6,-5.6 c28.1,-16.2 34.4,-66.7 19.9,-130.1 C450.0999114990234,281.6999847412109 490.5999114990234,250.89998474121091 490.5999114990234,218.49998474121094 zM360.39991149902346,151.79998474121095 c-3.7,12.9 -8.3,26.2 -13.5,39.5 c-4.1,-8 -8.4,-16 -13.1,-24 c-4.6,-8 -9.5,-15.8 -14.4,-23.4 C333.59991149902345,145.99998474121094 347.29991149902344,148.59998474121093 360.39991149902346,151.79998474121095 zM314.59991149902345,258.29998474121095 c-7.8,13.5 -15.8,26.3 -24.1,38.2 c-14.9,1.3 -30,2 -45.2,2 c-15.1,0 -30.2,-0.7000000000000001 -45,-1.9 c-8.3,-11.9 -16.4,-24.6 -24.2,-38 c-7.6,-13.1 -14.5,-26.4 -20.8,-39.8 c6.2,-13.4 13.2,-26.8 20.7,-39.9 c7.8,-13.5 15.8,-26.3 24.1,-38.2 c14.9,-1.3 30,-2 45.2,-2 c15.1,0 30.2,0.7000000000000001 45,1.9 c8.3,11.9 16.4,24.6 24.2,38 c7.6,13.1 14.5,26.4 20.8,39.8 C328.9999114990234,231.79998474121095 322.09991149902345,245.19998474121093 314.59991149902345,258.29998474121095 zM346.89991149902346,245.29998474121095 c5.4,13.4 10,26.8 13.8,39.8 c-13.1,3.2 -26.9,5.9 -41.2,8 c4.9,-7.7 9.8,-15.6 14.4,-23.7 C338.4999114990235,261.3999847412109 342.79991149902344,253.29998474121095 346.89991149902346,245.29998474121095 zM245.49991149902343,351.99998474121094 c-9.3,-9.6 -18.6,-20.3 -27.8,-32 c9,0.4 18.2,0.7000000000000001 27.5,0.7000000000000001 c9.4,0 18.7,-0.2 27.8,-0.7000000000000001 C263.9999114990234,331.6999847412109 254.69991149902341,342.3999847412109 245.49991149902343,351.99998474121094 zM171.09991149902345,293.09998474121096 c-14.2,-2.1 -27.9,-4.7 -41,-7.9 c3.7,-12.9 8.3,-26.2 13.5,-39.5 c4.1,8 8.4,16 13.1,24 C161.39991149902346,277.6999847412109 166.19991149902341,285.49998474121094 171.09991149902345,293.09998474121096 zM244.99991149902343,84.99998474121094 c9.3,9.6 18.6,20.3 27.8,32 c-9,-0.4 -18.2,-0.7000000000000001 -27.5,-0.7000000000000001 c-9.4,0 -18.7,0.2 -27.8,0.7000000000000001 C226.49991149902343,105.29998474121095 235.79991149902344,94.59998474121093 244.99991149902343,84.99998474121094 zM170.99991149902343,143.89998474121094 c-4.9,7.7 -9.8,15.6 -14.4,23.7 c-4.6,8 -8.9,16 -13,24 c-5.4,-13.4 -10,-26.8 -13.8,-39.8 C142.89991149902346,148.69998474121093 156.69991149902341,145.99998474121094 170.99991149902343,143.89998474121094 zM80.49991149902343,269.09998474121096 c-35.4,-15.1 -58.3,-34.9 -58.3,-50.6 c0,-15.7 22.9,-35.6 58.3,-50.6 c8.6,-3.7 18,-7 27.7,-10.1 c5.7,19.6 13.2,40 22.5,60.9 c-9.2,20.8 -16.6,41.1 -22.2,60.6 C98.59991149902345,276.1999847412109 89.19991149902341,272.79998474121095 80.49991149902343,269.09998474121096 zM134.29991149902344,411.99998474121094 c-13.6,-7.8 -19.5,-37.5 -14.9,-75.7 c1.1,-9.4 2.9,-19.3 5.1,-29.4 c19.6,4.8 41,8.5 63.5,10.9 c13.5,18.5 27.5,35.3 41.6,50 c-32.6,30.3 -63.2,46.9 -84,46.9 C141.09991149902345,414.59998474121096 137.29991149902344,413.6999847412109 134.29991149902344,411.99998474121094 zM371.4999114990235,335.79998474121095 c4.7,38.2 -1.1,67.9 -14.6,75.8 c-3,1.8 -6.9,2.6 -11.5,2.6 c-20.7,0 -51.4,-16.5 -84,-46.6 c14,-14.7 28,-31.4 41.3,-49.9 c22.6,-2.4 44,-6.1 63.6,-11 C368.5999114990234,316.79998474121095 370.39991149902346,326.49998474121094 371.4999114990235,335.79998474121095 zM409.9999114990235,269.09998474121096 c-8.6,3.7 -18,7 -27.7,10.1 c-5.7,-19.6 -13.2,-40 -22.5,-60.9 c9.2,-20.8 16.6,-41.1 22.2,-60.6 c9.9,3.1 19.3,6.5 28.1,10.2 c35.4,15.1 58.3,34.9 58.3,50.6 C468.29991149902344,234.19998474121093 445.39991149902346,254.09998474121096 409.9999114990235,269.09998474121096 z" id="svg_2"/>
	<polygon fill="#61DAFB" points="145.0998992919922,0.39998626708984375 145.0998992919922,0.39998626708984375 145.0998992919922,0.39998626708984375 " id="svg_3"/>
	<circle fill="#61DAFB" cx="245.1999053955078" cy="218.49998474121094" r="45.70000076293945" id="svg_4"/>
	<polygon fill="#61DAFB" points="344.79991149902344,0.09998321533203125 344.79991149902344,0.09998321533203125 344.79991149902344,0.09998321533203125 " id="svg_5"/>
</g></g></svg>